# xmcd
#
# Track frame offsets:
#	182
#	18392
#	40977
#	69097
#
# Disc length: 1180 seconds
# Revision: 0
# Processed by: cddbd v1.5.2PL0 Copyright (c) Steve Scherf et al.
# Submitted via: dBpowerAMP V12.0
#
DISCID=28049a04
DTITLE=Barry White - Practice What You Preach (Single)
DYEAR=1994
DGENRE=Soul
TTITLE0=Practice What You Preach (LP Version Edit)
TTITLE1=Practice What You Preach (Michael Angelo "Do It" Remix)
TTITLE2=Practice What You Preach (Kenneth Crouch Remix)
TTITLE3=Love is The Icon (Roger’s Midnite Luv Mix)
EXTD=
EXTT0=
EXTT1=
EXTT2=
EXTT3=
PLAYORDER=
